<svg width="6" height="11" viewBox="0 0 6 11" fill="none" xmlns="http://www.w3.org/2000/svg">
<path d="M0.667969 10.3613C0.820313 10.3613 0.949219 10.3027 1.04883 10.2031L5.69531 5.66211C5.80664 5.55078 5.86523 5.41602 5.86523 5.26953C5.86523 5.11719 5.80664 4.97656 5.69531 4.87695L1.05469 0.341797C0.949219 0.236328 0.820313 0.177734 0.667969 0.177734C0.363282 0.177734 0.134766 0.412109 0.134766 0.716797C0.134766 0.857422 0.19336 0.998047 0.28711 1.09766L4.55273 5.26953L0.28711 9.44141C0.19336 9.54102 0.134766 9.67578 0.134766 9.82227C0.134766 10.127 0.363282 10.3613 0.667969 10.3613Z" fill="#979797"/>
</svg>
