<svg width="11" height="7" viewBox="0 0 11 7" fill="none" xmlns="http://www.w3.org/2000/svg">
<path d="M0.138672 1.16797C0.138672 1.32031 0.197266 1.44922 0.296875 1.54883L4.83789 6.19531C4.94922 6.30664 5.08398 6.36523 5.23047 6.36523C5.38281 6.36523 5.52344 6.30664 5.62305 6.19531L10.1582 1.55469C10.2637 1.44922 10.3223 1.32031 10.3223 1.16797C10.3223 0.863282 10.0879 0.634766 9.7832 0.634766C9.64258 0.634766 9.50195 0.69336 9.40234 0.78711L5.23047 5.05273L1.05859 0.787109C0.958984 0.693359 0.824219 0.634766 0.677734 0.634766C0.373047 0.634766 0.138672 0.863281 0.138672 1.16797Z" fill="#979797"/>
</svg>
