<svg width="15" height="13" viewBox="0 0 15 13" fill="none" xmlns="http://www.w3.org/2000/svg">
<path d="M0.101562 6.35156C0.101562 6.58594 0.203125 6.82031 0.382812 6.99219L5.53906 12.1406C5.72656 12.3203 5.92969 12.4062 6.15625 12.4062C6.64844 12.4062 7.00781 12.0547 7.00781 11.5781C7.00781 11.3281 6.91406 11.1172 6.75 10.9609L4.99219 9.17969L2.72656 7.10938L4.54688 7.21875H14.0156C14.5312 7.21875 14.8906 6.85938 14.8906 6.35156C14.8906 5.83594 14.5312 5.47656 14.0156 5.47656H4.54688L2.73438 5.58594L4.99219 3.51562L6.75 1.73438C6.91406 1.57812 7.00781 1.36719 7.00781 1.11719C7.00781 0.640625 6.64844 0.289062 6.15625 0.289062C5.92969 0.289062 5.71875 0.375 5.51562 0.570312L0.382812 5.70312C0.203125 5.875 0.101562 6.10938 0.101562 6.35156Z" fill="#000"/>
</svg>
