<svg width="17" height="19" viewBox="0 0 17 19" fill="none" xmlns="http://www.w3.org/2000/svg">
<path d="M1.53027 15.5166H10.3809C10.3105 16.7031 9.55469 17.459 8.49121 17.459C7.43652 17.459 6.67188 16.7031 6.61035 15.5166H5.23926C5.30957 17.2041 6.63672 18.6895 8.49121 18.6895C10.3545 18.6895 11.6816 17.2129 11.752 15.5166H15.4609C16.2871 15.5166 16.7881 15.0859 16.7881 14.4531C16.7881 13.5742 15.8916 12.7832 15.1357 12.001C14.5557 11.3945 14.3975 10.1465 14.3271 9.13574C14.2656 5.67285 13.3691 3.43164 11.0312 2.58789C10.7324 1.44531 9.79199 0.53125 8.49121 0.53125C7.19922 0.53125 6.25 1.44531 5.95996 2.58789C3.62207 3.43164 2.72559 5.67285 2.66406 9.13574C2.59375 10.1465 2.43555 11.3945 1.85547 12.001C1.09082 12.7832 0.203125 13.5742 0.203125 14.4531C0.203125 15.0859 0.695312 15.5166 1.53027 15.5166ZM1.9082 14.1895V14.084C2.06641 13.8203 2.59375 13.3105 3.05078 12.792C3.68359 12.0889 3.98242 10.9639 4.06152 9.24121C4.13184 5.40918 5.27441 4.17871 6.77734 3.77441C6.99707 3.72168 7.12012 3.60742 7.12891 3.3877C7.15527 2.46484 7.68262 1.82324 8.49121 1.82324C9.30859 1.82324 9.82715 2.46484 9.8623 3.3877C9.87109 3.60742 9.98535 3.72168 10.2051 3.77441C11.7168 4.17871 12.8594 5.40918 12.9297 9.24121C13.0088 10.9639 13.3076 12.0889 13.9316 12.792C14.3975 13.3105 14.916 13.8203 15.0742 14.084V14.1895H1.9082Z" fill="black"/>
</svg>
