<svg width="17" height="20" viewBox="0 0 17 20" fill="none" xmlns="http://www.w3.org/2000/svg">
<path d="M1.53027 15.5166H15.4609C16.2871 15.5166 16.7881 15.0859 16.7881 14.4531C16.7881 13.5742 15.8916 12.7832 15.1357 12.001C14.5557 11.3945 14.3975 10.1465 14.3271 9.13574C14.2656 5.76074 13.3691 3.43164 11.0312 2.58789C10.6973 1.44531 9.79199 0.53125 8.49121 0.53125C7.19922 0.53125 6.28516 1.44531 5.95996 2.58789C3.62207 3.43164 2.72559 5.76074 2.66406 9.13574C2.59375 10.1465 2.43555 11.3945 1.85547 12.001C1.09082 12.7832 0.203125 13.5742 0.203125 14.4531C0.203125 15.0859 0.695312 15.5166 1.53027 15.5166ZM8.49121 19.0322C9.98535 19.0322 11.0752 17.9424 11.1895 16.7119H5.80176C5.91602 17.9424 7.00586 19.0322 8.49121 19.0322Z" fill="black"/>
</svg>
