<svg width="13" height="18" viewBox="0 0 13 18" fill="none" xmlns="http://www.w3.org/2000/svg">
<path d="M1.20312 17.9219C1.65625 17.9219 1.9375 17.7109 2.66406 16.9766L6.38281 13.2266C6.42188 13.1875 6.46094 13.1562 6.5 13.1562C6.53906 13.1562 6.57031 13.1875 6.60938 13.2266L10.3359 16.9766C11.0469 17.7031 11.3438 17.9219 11.7891 17.9219C12.375 17.9219 12.8516 17.5625 12.8516 16.7344V3.39062C12.8516 1.70312 11.9766 0.820312 10.3047 0.820312H2.69531C1.02344 0.820312 0.148438 1.70312 0.148438 3.39062V16.7344C0.148438 17.5625 0.617188 17.9219 1.20312 17.9219ZM1.89062 15.5391C1.78906 15.6484 1.70312 15.6094 1.70312 15.4609V3.49219C1.70312 2.76562 2.07812 2.375 2.83594 2.375H10.1641C10.9141 2.375 11.2891 2.76562 11.2891 3.49219V15.4609C11.2891 15.6094 11.2109 15.6406 11.1016 15.5391L7 11.4453C6.8125 11.2656 6.65625 11.1953 6.5 11.1953C6.34375 11.1953 6.17969 11.2656 6 11.4453L1.89062 15.5391Z" fill="#000"/>
</svg>
