<svg width="18" height="17" viewBox="0 0 18 17" fill="none" xmlns="http://www.w3.org/2000/svg">
<path d="M2.65625 16.0469H15.3438C17.0234 16.0469 17.8828 15.1953 17.8828 13.5312V5.88281C17.8828 4.21875 17.0234 3.36719 15.3438 3.36719H13.75V2.88281C13.75 1.3125 12.9375 0.570312 11.4297 0.570312H6.57031C5.125 0.570312 4.25 1.3125 4.25 2.88281V3.36719H2.65625C0.984375 3.36719 0.117188 4.21875 0.117188 5.88281V13.5312C0.117188 15.1953 0.984375 16.0469 2.65625 16.0469ZM5.70312 2.77344C5.70312 2.19531 6.00781 1.89844 6.58594 1.89844H11.4141C11.9922 1.89844 12.2969 2.19531 12.2969 2.77344V3.36719H5.70312V2.77344ZM1.67188 5.92969C1.67188 5.21875 2.03906 4.86719 2.71875 4.86719H15.2812C15.9609 4.86719 16.3203 5.21875 16.3203 5.92969V7.90625H1.67188V5.92969ZM2.71875 14.5469C2.03906 14.5469 1.67188 14.1953 1.67188 13.4844V9.25H5.90625V9.69531C5.90625 10.3906 6.3125 10.7891 7.00781 10.7891H10.9922C11.6875 10.7891 12.0859 10.3906 12.0859 9.69531V9.25H16.3203V13.4844C16.3203 14.1953 15.9609 14.5469 15.2812 14.5469H2.71875Z" fill="black"/>
</svg>
