<svg width="16" height="15" viewBox="0 0 16 15" fill="none" xmlns="http://www.w3.org/2000/svg">
<path d="M2.61719 14.6719H13.375C15.0703 14.6719 15.9531 13.7969 15.9531 12.125V2.61719C15.9531 0.945312 15.0703 0.0703125 13.375 0.0703125H2.61719C0.929688 0.0703125 0.046875 0.9375 0.046875 2.61719V12.125C0.046875 13.7969 0.929688 14.6719 2.61719 14.6719ZM2.60938 13.1172C1.96094 13.1172 1.60156 12.7812 1.60156 12.0938V4.90625C1.60156 4.21875 1.96094 3.88281 2.60938 3.88281H13.3828C14.0312 3.88281 14.3906 4.21875 14.3906 4.90625V12.0938C14.3906 12.7812 14.0312 13.1172 13.3828 13.1172H2.60938ZM6.49219 6.57812H6.95312C7.23438 6.57812 7.32812 6.49219 7.32812 6.21875V5.75781C7.32812 5.47656 7.23438 5.39062 6.95312 5.39062H6.49219C6.21094 5.39062 6.11719 5.47656 6.11719 5.75781V6.21875C6.11719 6.49219 6.21094 6.57812 6.49219 6.57812ZM9.04688 6.57812H9.50781C9.78125 6.57812 9.875 6.49219 9.875 6.21875V5.75781C9.875 5.47656 9.78125 5.39062 9.50781 5.39062H9.04688C8.76562 5.39062 8.67188 5.47656 8.67188 5.75781V6.21875C8.67188 6.49219 8.76562 6.57812 9.04688 6.57812ZM11.5938 6.57812H12.0547C12.3359 6.57812 12.4297 6.49219 12.4297 6.21875V5.75781C12.4297 5.47656 12.3359 5.39062 12.0547 5.39062H11.5938C11.3203 5.39062 11.2266 5.47656 11.2266 5.75781V6.21875C11.2266 6.49219 11.3203 6.57812 11.5938 6.57812ZM3.94531 9.09375H4.39844C4.67969 9.09375 4.77344 9.00781 4.77344 8.72656V8.26562C4.77344 7.99219 4.67969 7.90625 4.39844 7.90625H3.94531C3.66406 7.90625 3.57031 7.99219 3.57031 8.26562V8.72656C3.57031 9.00781 3.66406 9.09375 3.94531 9.09375ZM6.49219 9.09375H6.95312C7.23438 9.09375 7.32812 9.00781 7.32812 8.72656V8.26562C7.32812 7.99219 7.23438 7.90625 6.95312 7.90625H6.49219C6.21094 7.90625 6.11719 7.99219 6.11719 8.26562V8.72656C6.11719 9.00781 6.21094 9.09375 6.49219 9.09375ZM9.04688 9.09375H9.50781C9.78125 9.09375 9.875 9.00781 9.875 8.72656V8.26562C9.875 7.99219 9.78125 7.90625 9.50781 7.90625H9.04688C8.76562 7.90625 8.67188 7.99219 8.67188 8.26562V8.72656C8.67188 9.00781 8.76562 9.09375 9.04688 9.09375ZM11.5938 9.09375H12.0547C12.3359 9.09375 12.4297 9.00781 12.4297 8.72656V8.26562C12.4297 7.99219 12.3359 7.90625 12.0547 7.90625H11.5938C11.3203 7.90625 11.2266 7.99219 11.2266 8.26562V8.72656C11.2266 9.00781 11.3203 9.09375 11.5938 9.09375ZM3.94531 11.6016H4.39844C4.67969 11.6016 4.77344 11.5156 4.77344 11.2422V10.7812C4.77344 10.5 4.67969 10.4141 4.39844 10.4141H3.94531C3.66406 10.4141 3.57031 10.5 3.57031 10.7812V11.2422C3.57031 11.5156 3.66406 11.6016 3.94531 11.6016ZM6.49219 11.6016H6.95312C7.23438 11.6016 7.32812 11.5156 7.32812 11.2422V10.7812C7.32812 10.5 7.23438 10.4141 6.95312 10.4141H6.49219C6.21094 10.4141 6.11719 10.5 6.11719 10.7812V11.2422C6.11719 11.5156 6.21094 11.6016 6.49219 11.6016ZM9.04688 11.6016H9.50781C9.78125 11.6016 9.875 11.5156 9.875 11.2422V10.7812C9.875 10.5 9.78125 10.4141 9.50781 10.4141H9.04688C8.76562 10.4141 8.67188 10.5 8.67188 10.7812V11.2422C8.67188 11.5156 8.76562 11.6016 9.04688 11.6016Z" fill="black"/>
</svg>
