<svg width="24" height="20" viewBox="0 0 24 20" fill="none" xmlns="http://www.w3.org/2000/svg">
<path d="M3.70312 19.0898H20.4902C22.5996 19.0898 23.7031 17.9961 23.7031 15.9062V5.65234C23.7031 3.5625 22.5996 2.46875 20.4902 2.46875H18.2832C17.5312 2.46875 17.2773 2.3418 16.8086 1.84375L16.0273 1.01367C15.5195 0.476562 15.002 0.212891 14.0156 0.212891H10.1289C9.13281 0.212891 8.625 0.476562 8.11719 1.01367L7.33594 1.84375C6.86719 2.33203 6.61328 2.46875 5.85156 2.46875H3.70312C1.59375 2.46875 0.490234 3.5625 0.490234 5.65234V15.9062C0.490234 17.9961 1.59375 19.0898 3.70312 19.0898ZM3.83008 17.1465C2.94141 17.1465 2.43359 16.6777 2.43359 15.7305V5.82812C2.43359 4.89062 2.94141 4.42188 3.83008 4.42188H6.42773C7.30664 4.42188 7.75586 4.26562 8.24414 3.72852L8.98633 2.9082C9.5332 2.3125 9.83594 2.15625 10.6855 2.15625H13.459C14.3086 2.15625 14.6016 2.3125 15.1484 2.89844L15.9004 3.72852C16.3887 4.26562 16.8379 4.42188 17.7168 4.42188H20.3633C21.252 4.42188 21.7598 4.89062 21.7598 5.82812V15.7305C21.7598 16.6777 21.252 17.1465 20.3633 17.1465H3.83008ZM12.0918 15.6816C15.0215 15.6816 17.3652 13.3379 17.3652 10.4082C17.3652 7.46875 15.0215 5.125 12.0918 5.125C9.17188 5.125 6.82812 7.46875 6.82812 10.4082C6.82812 13.3379 9.17188 15.6816 12.0918 15.6816ZM18.9961 8.2207C19.6895 8.2207 20.2461 7.67383 20.2461 6.99023C20.2461 6.28711 19.6895 5.74023 18.9961 5.74023C18.3125 5.74023 17.7559 6.28711 17.7559 6.99023C17.7559 7.67383 18.3125 8.2207 18.9961 8.2207ZM12.0918 13.9141C10.168 13.9141 8.5957 12.3516 8.5957 10.4082C8.5957 8.45508 10.1582 6.89258 12.0918 6.89258C14.0352 6.89258 15.5977 8.45508 15.5977 10.4082C15.5977 12.3516 14.0352 13.9141 12.0918 13.9141Z" fill="#575366"/>
</svg>
