<svg width="22" height="22" viewBox="0 0 22 22" fill="none" xmlns="http://www.w3.org/2000/svg">
<path d="M10.9902 21.0566C16.5273 21.0566 21.0977 16.4863 21.0977 10.959C21.0977 5.42188 16.5176 0.851562 10.9805 0.851562C5.45312 0.851562 0.892578 5.42188 0.892578 10.959C0.892578 16.4863 5.46289 21.0566 10.9902 21.0566ZM9.66211 16.0566C9.29102 16.0566 8.99805 15.8906 8.71484 15.5586L5.90234 12.1309C5.72656 11.916 5.63867 11.6719 5.63867 11.4375C5.63867 10.9102 6.04883 10.5098 6.54688 10.5098C6.84961 10.5098 7.10352 10.6367 7.34766 10.9297L9.63281 13.8105L14.0371 6.7793C14.252 6.42773 14.5352 6.26172 14.8379 6.26172C15.3262 6.26172 15.7949 6.60352 15.7949 7.12109C15.7949 7.35547 15.6777 7.59961 15.541 7.81445L10.5801 15.5293C10.3457 15.8809 10.0332 16.0566 9.66211 16.0566Z" fill="#000"/>
</svg>
