<svg width="30" height="30" viewBox="0 0 30 30" fill="none" xmlns="http://www.w3.org/2000/svg">
<circle cx="15" cy="15" r="14" fill="#000" stroke="#000" stroke-width="2"/>
<path d="M13.2969 22.3281C13.7109 22.3281 14.0312 22.1562 14.2578 21.8203L21.6016 10.3828C21.7656 10.125 21.8359 9.90625 21.8359 9.69531C21.8359 9.14062 21.4453 8.75781 20.8828 8.75781C20.5 8.75781 20.2656 8.89844 20.0312 9.26562L13.2578 20.0078L9.78125 15.5469C9.54688 15.2422 9.30469 15.1172 8.96094 15.1172C8.39844 15.1172 7.99219 15.5156 7.99219 16.0625C7.99219 16.3047 8.07812 16.5391 8.28125 16.7812L12.3281 21.8281C12.6016 22.1719 12.8906 22.3281 13.2969 22.3281Z" fill="white"/>
</svg>
