<svg width="16" height="17" viewBox="0 0 16 17" fill="none" xmlns="http://www.w3.org/2000/svg">
<path d="M14.9844 2.79688L15.5703 2.1875C15.8672 1.875 15.8906 1.4375 15.5938 1.14844L15.3906 0.9375C15.125 0.664062 14.6797 0.710938 14.3906 1L13.7812 1.59375L14.9844 2.79688ZM6.11719 10.7344L7.71094 10.0703L14.4141 3.36719L13.2109 2.17188L6.51562 8.875L5.8125 10.4219C5.73438 10.6016 5.9375 10.8125 6.11719 10.7344ZM2.76562 16.6562H11.8672C13.3672 16.6562 14.2422 15.7812 14.2422 14.1094V5.57031L12.6875 7.125V13.9688C12.6875 14.7188 12.2891 15.0938 11.7656 15.0938H2.86719C2.14844 15.0938 1.75 14.7188 1.75 13.9688V5.28906C1.75 4.53906 2.14844 4.16406 2.86719 4.16406H9.19531L10.75 2.60156H2.76562C1.07812 2.60156 0.195312 3.47656 0.195312 5.14844V14.1094C0.195312 15.7812 1.07812 16.6562 2.76562 16.6562Z" fill="black"/>
</svg>
