<svg width="21" height="20" viewBox="0 0 21 20" fill="none" xmlns="http://www.w3.org/2000/svg">
<path d="M4.72559 19.1885H16.2744C17.5225 19.1885 18.252 18.4854 18.252 17.2461V9.22168L19.3857 10.2588C19.5615 10.4346 19.7637 10.5576 20.0186 10.5576C20.4316 10.5576 20.7656 10.3027 20.7656 9.88086C20.7656 9.61719 20.6602 9.4502 20.502 9.30078L17.4521 6.51465V1.33789C17.4521 0.951172 17.1973 0.705078 16.8193 0.705078H15.668C15.2812 0.705078 15.0264 0.951172 15.0264 1.33789V4.30859L11.5547 1.14453C11.2471 0.863281 10.8779 0.705078 10.5 0.705078C10.1221 0.705078 9.75293 0.863281 9.44531 1.14453L0.498047 9.30078C0.339844 9.4502 0.234375 9.61719 0.234375 9.88086C0.234375 10.3027 0.568359 10.5576 0.981445 10.5576C1.22754 10.5576 1.43848 10.4346 1.61426 10.2588L2.74805 9.23047V17.2461C2.74805 18.4854 3.47754 19.1885 4.72559 19.1885ZM13.0312 11.9375C13.0312 11.5332 12.7676 11.2783 12.3633 11.2783H8.63672C8.23242 11.2783 7.95996 11.5332 7.95996 11.9375V17.7734H5.0332C4.4707 17.7734 4.16309 17.4658 4.16309 16.8945V7.93848L10.1924 2.44531C10.2803 2.35742 10.3857 2.30469 10.5 2.30469C10.6143 2.30469 10.7197 2.34863 10.8164 2.44531L16.8369 7.93848V16.8945C16.8369 17.4658 16.5293 17.7734 15.9668 17.7734H13.0312V11.9375Z" fill="black"/>
</svg>
