<svg width="22" height="20" viewBox="0 0 22 20" fill="none" xmlns="http://www.w3.org/2000/svg">
<path d="M0.734375 9.88086C0.734375 10.3027 1.06836 10.5576 1.48145 10.5576C1.72754 10.5576 1.93848 10.4346 2.11426 10.2588L10.6924 2.44531C10.7891 2.34863 10.8945 2.31348 11 2.31348C11.1143 2.31348 11.2109 2.34863 11.3164 2.44531L19.8857 10.2588C20.0615 10.4346 20.2637 10.5576 20.5186 10.5576C20.9316 10.5576 21.2656 10.3027 21.2656 9.88086C21.2656 9.61719 21.1602 9.4502 21.002 9.30078L17.9609 6.53223V1.33789C17.9609 0.951172 17.7061 0.705078 17.3281 0.705078H16.1768C15.79 0.705078 15.5352 0.951172 15.5352 1.33789V4.32617L12.0547 1.14453C11.7383 0.854492 11.3691 0.713867 11 0.713867C10.6309 0.713867 10.2617 0.854492 9.94531 1.14453L0.998047 9.30078C0.839844 9.4502 0.734375 9.61719 0.734375 9.88086ZM3.24805 17.2549C3.24805 18.4766 3.98633 19.1885 5.22559 19.1885H8.78516V12.9395C8.78516 12.5352 9.04883 12.2715 9.45312 12.2715H12.5557C12.9688 12.2715 13.2236 12.5352 13.2236 12.9395V19.1885H16.7744C18.0137 19.1885 18.752 18.4766 18.752 17.2549V10.8213L11.2812 4.09766C11.1934 4.00977 11.0791 3.96582 10.9824 3.96582C10.8857 3.96582 10.7803 4.00977 10.6836 4.10645L3.24805 10.8652V17.2549Z" fill="black"/>
</svg>
