<svg width="38" height="38" viewBox="0 0 38 38" fill="none" xmlns="http://www.w3.org/2000/svg">
<path d="M19 3.5625H18.948C14.8363 3.57734 10.977 5.18789 8.06758 8.09727C5.16562 11.0141 3.5625 14.8809 3.5625 19C3.5625 23.1191 5.16563 26.9859 8.075 29.9027C10.977 32.8121 14.8437 34.4227 18.9555 34.4375H19.0074C27.5203 34.4375 34.4449 27.5129 34.4449 19C34.4449 10.4871 27.5129 3.5625 19 3.5625ZM32.3742 17.9609H26.6148C26.548 15.9793 26.3031 14.0867 25.8875 12.3055C27.1566 11.8973 28.3887 11.3777 29.5762 10.7469C31.209 12.8398 32.1738 15.3188 32.3742 17.9609ZM17.9609 17.9609H13.3742C13.4336 16.1426 13.6562 14.4207 14.0273 12.8324C15.3188 13.1219 16.6324 13.3 17.9609 13.3594V17.9609ZM17.9609 20.0391V24.6332C16.6398 24.6926 15.3188 24.8707 14.0273 25.1602C13.6562 23.5719 13.4336 21.85 13.3742 20.0391H17.9609ZM20.0391 20.0391H24.5887C24.5293 21.85 24.3066 23.5719 23.9355 25.1527C22.659 24.8633 21.3527 24.6926 20.0391 24.6332V20.0391ZM20.0391 17.9609V13.3594C21.3602 13.3 22.6664 13.1219 23.9355 12.8398C24.3066 14.4281 24.5293 16.1426 24.5887 17.9609H20.0391ZM28.1586 9.21055C27.2457 9.66328 26.3031 10.0492 25.3383 10.3609C24.8113 8.77266 24.1434 7.39961 23.3715 6.31602C25.1527 6.93203 26.7781 7.91914 28.1586 9.21055ZM23.3789 10.8953C22.2879 11.1328 21.1672 11.2812 20.0391 11.3406V5.89297C21.3008 6.57578 22.5328 8.40898 23.3789 10.8953ZM17.9609 5.86328V11.3332C16.818 11.2738 15.6898 11.1254 14.584 10.8805C15.4449 8.37188 16.6918 6.53867 17.9609 5.86328ZM14.5766 6.33828C13.8121 7.41445 13.1516 8.78008 12.6246 10.3535C11.6746 10.0418 10.7395 9.65586 9.84141 9.21055C11.207 7.92656 12.8176 6.94688 14.5766 6.33828ZM8.42383 10.7543C9.59648 11.3777 10.8211 11.8973 12.0754 12.298C11.6523 14.0719 11.4074 15.9719 11.348 17.9535H5.6332C5.82617 15.3262 6.79102 12.8473 8.42383 10.7543ZM5.62578 20.0391H11.3406C11.4074 22.0207 11.6523 23.9207 12.068 25.6945C10.8137 26.1027 9.58906 26.6223 8.41641 27.2383C6.79102 25.1527 5.82617 22.6738 5.62578 20.0391ZM9.83398 28.7895C10.732 28.3441 11.6672 27.9582 12.6246 27.6465C13.1516 29.2273 13.8121 30.5855 14.5766 31.6691C12.8176 31.0457 11.207 30.0734 9.83398 28.7895ZM14.584 27.1121C15.6898 26.8672 16.8254 26.7188 17.9609 26.6594V32.1367C16.6844 31.4613 15.4449 29.6207 14.584 27.1121ZM20.0391 32.107V26.652C21.1672 26.7113 22.2879 26.8598 23.3789 27.0973C22.5328 29.591 21.3008 31.4242 20.0391 32.107ZM23.3789 31.684C24.1508 30.6004 24.8188 29.2273 25.3457 27.6391C26.3105 27.9508 27.2605 28.3441 28.166 28.7969C26.7855 30.0809 25.1527 31.068 23.3789 31.684ZM29.5762 27.2457C28.3887 26.6148 27.1566 26.0953 25.8875 25.6871C26.3031 23.9133 26.548 22.0207 26.6148 20.0391H32.3742C32.1738 22.6738 31.2164 25.1527 29.5762 27.2457Z" fill="black"/>
</svg>
