<svg width="15" height="16" viewBox="0 0 15 16" fill="none" xmlns="http://www.w3.org/2000/svg">
<path d="M6.19531 13.0156C7.4375 13.0156 8.60156 12.6406 9.57031 12L12.9922 15.4297C13.2188 15.6484 13.5078 15.7578 13.8203 15.7578C14.4688 15.7578 14.9453 15.25 14.9453 14.6094C14.9453 14.3125 14.8438 14.0234 14.625 13.8047L11.2266 10.3906C11.9297 9.39844 12.3438 8.17969 12.3438 6.86719C12.3438 3.48438 9.57812 0.71875 6.19531 0.71875C2.8125 0.71875 0.046875 3.48438 0.046875 6.86719C0.046875 10.25 2.8125 13.0156 6.19531 13.0156ZM6.19531 11.375C3.71875 11.375 1.6875 9.34375 1.6875 6.86719C1.6875 4.39844 3.71875 2.35938 6.19531 2.35938C8.67188 2.35938 10.7031 4.39844 10.7031 6.86719C10.7031 9.34375 8.67188 11.375 6.19531 11.375Z" fill="#000"/>
</svg>
