<svg width="20" height="16" viewBox="0 0 20 16" fill="none" xmlns="http://www.w3.org/2000/svg">
<path d="M3.05664 15.2393H17.207C18.7891 15.2393 19.7031 14.3252 19.7031 12.5146V2.81152C19.7031 1.00977 18.7803 0.0957031 16.9434 0.0957031H2.79297C1.21094 0.0957031 0.296875 1.00098 0.296875 2.81152V12.5146C0.296875 14.334 1.21973 15.2393 3.05664 15.2393ZM8.9541 8.11133L2.31836 1.56348C2.51172 1.48438 2.74023 1.44043 3.00391 1.44043H16.9961C17.2686 1.44043 17.5059 1.48438 17.6992 1.58105L11.0811 8.11133C10.7031 8.48926 10.3604 8.65625 10.0176 8.65625C9.66602 8.65625 9.32324 8.48926 8.9541 8.11133ZM1.6416 12.5146V2.81152C1.6416 2.75 1.6416 2.77637 1.6416 2.72363L6.69531 7.68066L1.65039 12.6641C1.6416 12.6201 1.6416 12.5674 1.6416 12.5146ZM18.3584 2.82031V12.5234C18.3584 12.5586 18.3584 12.6025 18.3584 12.6377L13.3398 7.68066L18.3584 2.75C18.3584 2.82031 18.3584 2.82031 18.3584 2.82031ZM3.00391 13.8945C2.75781 13.8945 2.53809 13.8594 2.3623 13.7803L7.61816 8.58594L8.18945 9.14844C8.80469 9.75488 9.39355 10.0098 10.0176 10.0098C10.6328 10.0098 11.2305 9.75488 11.8457 9.14844L12.417 8.58594L17.6641 13.7715C17.4707 13.8594 17.251 13.8945 16.9961 13.8945H3.00391Z" fill="#000"/>
</svg>
