<svg width="20" height="16" viewBox="0 0 20 16" fill="none" xmlns="http://www.w3.org/2000/svg">
<path d="M10.0176 8.68262C10.3779 8.68262 10.7119 8.51562 11.0986 8.12891L18.7451 0.561523C18.4199 0.245117 17.8135 0.0957031 16.9434 0.0957031H2.79297C2.05469 0.0957031 1.53613 0.236328 1.24609 0.526367L8.93652 8.12891C9.31445 8.50684 9.64844 8.68262 10.0176 8.68262ZM0.516602 13.8242L6.73047 7.68066L0.499023 1.53711C0.367188 1.7832 0.296875 2.20508 0.296875 2.81152V12.5146C0.296875 13.1387 0.367188 13.5781 0.516602 13.8242ZM19.4922 13.8154C19.6328 13.5605 19.7031 13.1299 19.7031 12.5146V2.81152C19.7031 2.22266 19.6328 1.80078 19.5098 1.56348L13.2959 7.68066L19.4922 13.8154ZM3.05664 15.2393H17.207C17.9453 15.2393 18.4551 15.0986 18.7451 14.8174L12.4082 8.54199L11.8281 9.13086C11.2217 9.71094 10.6504 9.97461 10.0176 9.97461C9.37598 9.97461 8.80469 9.71094 8.20703 9.13086L7.61816 8.54199L1.29883 14.8086C1.63281 15.0986 2.21289 15.2393 3.05664 15.2393Z" fill="#000"/>
</svg>
