<svg width="24" height="34" viewBox="0 0 24 34" fill="none" xmlns="http://www.w3.org/2000/svg">
<g clip-path="url(#clip0)">
<path d="M11.7133 0.230957C14.8953 0.230957 17.6155 1.34724 19.8737 3.57979C22.1319 5.81235 23.261 8.51965 23.261 11.7017C23.261 13.2927 22.8633 15.1275 22.0678 17.2061C21.2722 19.2847 20.3099 21.2093 19.1808 22.9799C18.0517 24.7506 16.9226 26.4186 15.7935 27.984C14.6644 29.5493 13.7149 30.7939 12.9451 31.7177L11.7133 33.0265C11.4054 32.7185 10.9948 32.2566 10.4816 31.6407C9.96832 31.0248 9.05733 29.8316 7.74859 28.0609C6.43985 26.2903 5.27225 24.571 4.24579 22.903C3.21933 21.235 2.29551 19.3488 1.47434 17.2446C0.653169 15.1403 0.242584 13.2927 0.242584 11.7017C0.242584 8.51965 1.35886 5.81235 3.59142 3.57979C5.82398 1.34724 8.53127 0.230957 11.7133 0.230957ZM11.7133 15.7819C12.8424 15.7819 13.8176 15.3841 14.6387 14.5886C15.4599 13.7931 15.8705 12.8308 15.8705 11.7017C15.8705 10.5726 15.4599 9.61026 14.6387 8.81475C13.8176 8.01925 12.8424 7.62149 11.7133 7.62149C10.5842 7.62149 9.62189 8.01925 8.82638 8.81475C8.03087 9.61026 7.63312 10.5726 7.63312 11.7017C7.63312 12.8308 8.03087 13.7931 8.82638 14.5886C9.62189 15.3841 10.5842 15.7819 11.7133 15.7819Z" fill="#000"/>
</g>
<defs>
<clipPath id="clip0">
<rect width="23.4077" height="33.2574" fill="white" transform="translate(0.240417)"/>
</clipPath>
</defs>
</svg>
