<svg width="16" height="5" viewBox="0 0 16 5" fill="none" xmlns="http://www.w3.org/2000/svg">
<path d="M3.83594 2.36719C3.83594 1.4375 3.10156 0.710938 2.16406 0.710938C1.24219 0.710938 0.5 1.45312 0.5 2.36719C0.5 3.27344 1.24219 4.02344 2.16406 4.02344C3.07812 4.02344 3.83594 3.27344 3.83594 2.36719ZM9.64844 2.36719C9.64844 1.4375 8.92188 0.710938 8 0.710938C7.08594 0.710938 6.34375 1.45312 6.34375 2.36719C6.34375 3.27344 7.08594 4.02344 8 4.02344C8.90625 4.02344 9.64844 3.27344 9.64844 2.36719ZM15.5 2.36719C15.5 1.4375 14.7656 0.710938 13.8359 0.710938C12.9062 0.710938 12.1641 1.45312 12.1641 2.36719C12.1641 3.27344 12.9062 4.02344 13.8359 4.02344C14.7422 4.02344 15.5 3.27344 15.5 2.36719Z" fill="black"/>
</svg>
