<svg width="14" height="18" viewBox="0 0 14 18" fill="none" xmlns="http://www.w3.org/2000/svg">
<path d="M2.83594 17.8359H11.1641C12.8438 17.8359 13.7109 16.9531 13.7109 15.2578V3.47656C13.7109 1.78906 12.8438 0.90625 11.1641 0.90625H2.83594C1.16406 0.90625 0.289062 1.78906 0.289062 3.47656V15.2578C0.289062 16.9531 1.16406 17.8359 2.83594 17.8359ZM2.96875 16.2734C2.21875 16.2734 1.84375 15.8828 1.84375 15.1562V3.57812C1.84375 2.86719 2.21875 2.46094 2.97656 2.46094H11.0234C11.7812 2.46094 12.1562 2.85938 12.1562 3.57812V15.1562C12.1562 15.8828 11.7812 16.2734 11.0312 16.2734H2.96875ZM4.15625 5.67188H9.85156C10.1406 5.67188 10.3516 5.44531 10.3516 5.16406C10.3516 4.89062 10.1406 4.67969 9.85156 4.67969H4.15625C3.86719 4.67969 3.64844 4.89062 3.64844 5.16406C3.64844 5.44531 3.86719 5.67188 4.15625 5.67188ZM4.15625 8.33594H9.85156C10.1406 8.33594 10.3516 8.10938 10.3516 7.82812C10.3516 7.55469 10.1406 7.34375 9.85156 7.34375H4.15625C3.86719 7.34375 3.64844 7.55469 3.64844 7.82812C3.64844 8.10938 3.86719 8.33594 4.15625 8.33594ZM4.15625 11H6.92188C7.20312 11 7.41406 10.7812 7.41406 10.5078C7.41406 10.2266 7.20312 10.0078 6.92188 10.0078H4.15625C3.86719 10.0078 3.64844 10.2266 3.64844 10.5078C3.64844 10.7812 3.86719 11 4.15625 11Z" fill="black"/>
</svg>
