<svg width="22" height="22" viewBox="0 0 22 22" fill="none" xmlns="http://www.w3.org/2000/svg">
<path d="M10.9902 21.0566C16.5273 21.0566 21.0977 16.4863 21.0977 10.959C21.0977 5.42188 16.5176 0.851562 10.9805 0.851562C5.45312 0.851562 0.892578 5.42188 0.892578 10.959C0.892578 16.4863 5.46289 21.0566 10.9902 21.0566ZM10.9707 15.8027C10.375 15.8027 10.0137 15.373 10.0137 14.7578V11.9258H7.02539C6.41016 11.9258 5.9707 11.5645 5.9707 10.9688C5.9707 10.3633 6.39062 9.99219 7.02539 9.99219H10.0137V7.00391C10.0137 6.38867 10.375 5.94922 10.9707 5.94922C11.5664 5.94922 11.957 6.36914 11.957 7.00391V9.99219H14.9551C15.5898 9.99219 16 10.3633 16 10.9688C16 11.5645 15.5703 11.9258 14.9551 11.9258H11.957V14.7578C11.957 15.3828 11.5664 15.8027 10.9707 15.8027Z" fill="#000"/>
</svg>
