<svg width="19" height="19" viewBox="0 0 19 19" fill="none" xmlns="http://www.w3.org/2000/svg">
<path d="M9.5 17.1172C9.6875 17.1172 9.86719 17.1016 10.0625 17.0859L10.5 17.9141C10.5938 18.125 10.8047 18.2266 11.0469 18.1953C11.2734 18.1562 11.4297 17.9844 11.4609 17.75L11.5938 16.8203C11.9609 16.7266 12.3203 16.5859 12.6641 16.4375L13.3516 17.0547C13.5156 17.2188 13.7422 17.2422 13.9688 17.125C14.1641 17.0078 14.2422 16.7969 14.2031 16.5625L14.0078 15.6562C14.3125 15.4375 14.6094 15.1953 14.8906 14.9297L15.7344 15.2812C15.9609 15.375 16.1719 15.3203 16.3438 15.125C16.4844 14.9609 16.5078 14.7266 16.3828 14.5234L15.8906 13.7344C16.1016 13.4297 16.2812 13.0938 16.4453 12.7422L17.3828 12.7891C17.6094 12.8047 17.8125 12.6719 17.8906 12.4531C17.9688 12.2344 17.8906 12.0078 17.7109 11.8672L16.9844 11.2891C17.0781 10.9297 17.1484 10.5547 17.1797 10.1641L18.0625 9.88281C18.2891 9.80469 18.4297 9.625 18.4297 9.39062C18.4297 9.15625 18.2891 8.97656 18.0625 8.89844L17.1797 8.61719C17.1484 8.22656 17.0703 7.85938 16.9844 7.49219L17.7109 6.91406C17.8906 6.78125 17.9609 6.5625 17.8906 6.34375C17.8125 6.11719 17.6094 5.98438 17.3828 6L16.4453 6.03125C16.2812 5.6875 16.1016 5.35938 15.8906 5.04688L16.3828 4.25C16.5 4.0625 16.4844 3.82812 16.3438 3.66406C16.1719 3.46875 15.9609 3.41406 15.7344 3.50781L14.8828 3.85156C14.6094 3.59375 14.3125 3.34375 14.0078 3.13281L14.2031 2.22656C14.2422 1.98438 14.1641 1.77344 13.9609 1.66406C13.7422 1.54688 13.5156 1.5625 13.3516 1.73438L12.6641 2.34375C12.3203 2.1875 11.9609 2.0625 11.5938 1.96094L11.4609 1.04688C11.4297 0.8125 11.2734 0.640625 11.0469 0.59375C10.8047 0.5625 10.6016 0.664062 10.5 0.859375L10.0625 1.69531C9.86719 1.67969 9.6875 1.67188 9.5 1.67188C9.29688 1.67188 9.11719 1.67969 8.92188 1.69531L8.48438 0.859375C8.39062 0.664062 8.17969 0.5625 7.9375 0.601562C7.71094 0.640625 7.55469 0.8125 7.52344 1.04688L7.39062 1.96094C7.03125 2.0625 6.67188 2.1875 6.32031 2.34375L5.64062 1.73438C5.46875 1.57031 5.24219 1.54688 5.02344 1.66406C4.82812 1.77344 4.74219 1.98438 4.78125 2.22656L4.97656 3.13281C4.67188 3.34375 4.375 3.59375 4.10156 3.85156L3.25 3.50781C3.03125 3.41406 2.8125 3.46875 2.64844 3.66406C2.5 3.82812 2.48438 4.0625 2.60156 4.25L3.10156 5.04688C2.89062 5.35938 2.71094 5.6875 2.53906 6.03125L1.60938 6C1.375 5.98438 1.17188 6.11719 1.10156 6.34375C1.02344 6.5625 1.08594 6.78125 1.27344 6.91406L2.00781 7.49219C1.91406 7.85938 1.83594 8.22656 1.8125 8.61719L0.929688 8.89844C0.695312 8.97656 0.5625 9.14844 0.5625 9.39062C0.5625 9.625 0.695312 9.80469 0.929688 9.88281L1.8125 10.1641C1.83594 10.5547 1.91406 10.9297 2.00781 11.2891L1.28125 11.8672C1.09375 12 1.03125 12.2266 1.10156 12.4453C1.17188 12.6719 1.375 12.8047 1.60938 12.7891L2.53906 12.7422C2.70312 13.0938 2.89062 13.4297 3.10156 13.7344L2.60156 14.5312C2.47656 14.7266 2.5 14.9609 2.64844 15.125C2.8125 15.3203 3.03125 15.375 3.25 15.2812L4.10156 14.9297C4.375 15.1953 4.67188 15.4375 4.97656 15.6562L4.78125 16.5625C4.74219 16.7969 4.82031 17.0078 5.02344 17.125C5.24219 17.2422 5.46875 17.2188 5.64062 17.0547L6.32031 16.4375C6.67188 16.5859 7.02344 16.7266 7.39062 16.8281L7.52344 17.75C7.55469 17.9844 7.71094 18.1562 7.94531 18.1953C8.17969 18.2266 8.39062 18.125 8.48438 17.9219L8.92188 17.0859C9.11719 17.1016 9.29688 17.1172 9.5 17.1172ZM11.5391 8.77344C11.1562 7.76562 10.375 7.21875 9.45312 7.21875C9.32031 7.21875 9.17969 7.23438 8.9375 7.28906L6.82812 3.66406C7.63281 3.28906 8.53125 3.07812 9.49219 3.07812C12.7969 3.07812 15.3906 5.5625 15.6875 8.77344H11.5391ZM3.27344 9.39844C3.27344 7.30469 4.23438 5.46875 5.75781 4.32031L7.88281 7.95312C7.46875 8.40625 7.27344 8.90625 7.27344 9.42188C7.27344 9.91406 7.45312 10.3828 7.88281 10.8594L5.69531 14.4297C4.21094 13.2812 3.27344 11.4609 3.27344 9.39844ZM8.51562 9.41406C8.51562 8.88281 8.96094 8.47656 9.46094 8.47656C9.98438 8.47656 10.4141 8.88281 10.4141 9.41406C10.4141 9.92969 9.98438 10.3594 9.46094 10.3594C8.96094 10.3594 8.51562 9.92969 8.51562 9.41406ZM9.49219 15.7109C8.50781 15.7109 7.58594 15.4922 6.76562 15.0938L8.92969 11.5469C9.16406 11.5938 9.32031 11.6094 9.45312 11.6094C10.3828 11.6094 11.1562 11.0469 11.5391 10.0156H15.6875C15.3906 13.2266 12.7969 15.7109 9.49219 15.7109Z" fill="#000"/>
</svg>
