<svg xmlns="http://www.w3.org/2000/svg" width="33" height="33" fill="none" viewBox="0 0 33 33">
    <path fill="#000" d="M16.734 32.656c8.72 0 15.938-7.218 15.938-15.937C32.672 8.016 25.438.78 16.719.78 8.016.781.797 8.016.797 16.72c0 8.718 7.234 15.937 15.937 15.937zm0-24.703c.375 0 .688.156 1.016.484l5.75 5.766c.203.219.36.516.36.875 0 .703-.532 1.25-1.25 1.25-.36 0-.672-.14-.907-.375l-2.094-2.125-1.718-2.062.125 3.609v8.86c0 .75-.532 1.265-1.282 1.265s-1.28-.516-1.28-1.266v-8.859l.14-3.594-1.719 2.047-2.11 2.125c-.203.219-.53.375-.906.375-.703 0-1.218-.547-1.218-1.25 0-.36.109-.656.328-.875l5.765-5.765c.344-.344.641-.485 1-.485z"/>
</svg>
